<svg width="165" height="46" viewBox="0 0 165 46" fill="none" xmlns="http://www.w3.org/2000/svg">
  <circle cx="11.8684" cy="23" r="11.8684" fill="black" />
  <circle cx="11.8684" cy="23" r="8.82523" fill="white" />
  <circle cx="11.5641" cy="23.3043" r="4.26045" fill="black" />
  <rect x="23.7368" y="0.736816" width="141" height="44.5263" rx="9.27632" fill="white" />
  <path
    d="M157.736 33.7371V12.9196H153.965V21.7324H144.319V12.9196H140.538V33.7371H144.319V24.8937H153.965V33.7371H157.736Z"
    fill="black" />
  <path d="M29.8228 16.0807V12.9194H46.4321V16.0807H39.9977V33.7369H36.2571V16.0807H29.8228Z"
    fill="black" />
  <path d="M118.257 16.0808V12.9196H134.867V16.0808H128.432V33.7371H124.692V16.0808H118.257Z"
    fill="black" />
  <path
    d="M51.764 33.5134V22.7591V19.3132V15.8673V12.6959H59.5706C61.1699 12.6959 62.5116 12.9738 63.5959 13.5294C64.6869 14.0851 65.5102 14.8644 66.0659 15.8673C66.6284 16.8635 66.9096 18.0257 66.9096 19.3539C66.9096 20.6888 66.625 21.8476 66.0557 22.8302C65.4933 23.806 64.6632 24.5616 63.5654 25.097C62.4676 25.6255 61.119 25.8898 59.5198 25.8898H53.9596V22.7591H55.5352H59.0115C59.9467 22.7591 60.7124 22.6303 61.3088 22.3728C61.9051 22.1085 62.3456 21.7256 62.6302 21.2242C62.9216 20.7159 63.0673 20.0925 63.0673 19.3539C63.0673 18.6152 62.9216 17.985 62.6302 17.4632C62.3388 16.9346 61.8949 16.5348 61.2986 16.2638C60.7023 15.9859 59.9331 15.847 58.9912 15.847H55.5352L51.764 15.8673V19.3132V22.7591H55.5352V33.5134H51.764Z"
    fill="black" />
  <path
    d="M91.392 23.3283C91.392 25.5713 90.9719 27.4925 90.1316 29.0917C89.2981 30.6842 88.1596 31.904 86.7162 32.7511C85.2796 33.5981 83.6498 34.0217 81.8269 34.0217C80.0041 34.0217 78.3709 33.5981 76.9275 32.7511C75.4909 31.8972 74.3524 30.6741 73.5121 29.0816C72.6786 27.4823 72.2619 25.5646 72.2619 23.3283C72.2619 21.0853 72.6786 19.1675 73.5121 17.575C74.3524 15.9758 75.4909 14.7526 76.9275 13.9055C78.3709 13.0585 80.0041 12.6349 81.8269 12.6349C83.6498 12.6349 85.2796 13.0585 86.7162 13.9055C88.1596 14.7526 89.2981 15.9758 90.1316 17.575C90.9719 19.1675 91.392 21.0853 91.392 23.3283ZM87.6005 23.3283C87.6005 21.7494 87.3532 20.4178 86.8585 19.3335C86.3706 18.2425 85.693 17.4192 84.8256 16.8635C83.9582 16.301 82.9586 16.0198 81.8269 16.0198C80.6953 16.0198 79.6957 16.301 78.8283 16.8635C77.9609 17.4192 77.2799 18.2425 76.7852 19.3335C76.2973 20.4178 76.0533 21.7494 76.0533 23.3283C76.0533 24.9072 76.2973 26.2422 76.7852 27.3332C77.2799 28.4175 77.9609 29.2408 78.8283 29.8033C79.6957 30.359 80.6953 30.6368 81.8269 30.6368C82.9586 30.6368 83.9582 30.359 84.8256 29.8033C85.693 29.2408 86.3706 28.4175 86.8585 27.3332C87.3532 26.2422 87.6005 24.9072 87.6005 23.3283ZM113.559 23.3283C113.559 25.5713 113.139 27.4925 112.298 29.0917C111.465 30.6842 110.326 31.904 108.883 32.7511C107.446 33.5981 105.817 34.0217 103.994 34.0217C102.171 34.0217 100.538 33.5981 99.0944 32.7511C97.6578 31.8972 96.5193 30.6741 95.679 29.0816C94.8455 27.4823 94.4287 25.5646 94.4287 23.3283C94.4287 21.0853 94.8455 19.1675 95.679 17.575C96.5193 15.9758 97.6578 14.7526 99.0944 13.9055C100.538 13.0585 102.171 12.6349 103.994 12.6349C105.817 12.6349 107.446 13.0585 108.883 13.9055C110.326 14.7526 111.465 15.9758 112.298 17.575C113.139 19.1675 113.559 21.0853 113.559 23.3283ZM109.767 23.3283C109.767 21.7494 109.52 20.4178 109.025 19.3335C108.537 18.2425 107.86 17.4192 106.992 16.8635C106.125 16.301 105.125 16.0198 103.994 16.0198C102.862 16.0198 101.863 16.301 100.995 16.8635C100.128 17.4192 99.4468 18.2425 98.9521 19.3335C98.4642 20.4178 98.2202 21.7494 98.2202 23.3283C98.2202 24.9072 98.4642 26.2422 98.9521 27.3332C99.4468 28.4175 100.128 29.2408 100.995 29.8033C101.863 30.359 102.862 30.6368 103.994 30.6368C105.125 30.6368 106.125 30.359 106.992 29.8033C107.86 29.2408 108.537 28.4175 109.025 27.3332C109.52 26.2422 109.767 24.9072 109.767 23.3283Z"
    fill="black" />
  <path
    d="M63.0071 25.1646L59.6058 25.4738L63.6255 30.4211C63.6255 30.4211 68.2814 36.3615 69.5005 36.6053C71.0466 36.9146 72.2834 36.6053 72.2834 36.6053L63.0071 25.1646Z"
    fill="black" />
</svg>